<svg xmlns="http://www.w3.org/2000/svg" xmlns:xlink="http://www.w3.org/1999/xlink" xmlns:lucid="lucid" width="1152.24" height="1316.14"><g transform="translate(307.4074450974599 -245.04771380063917)" lucid:page-tab-id="0_0"><path d="M520.67 414.33a6 6 0 0 1 6-6h310.66a6 6 0 0 1 6 6V541a6 6 0 0 1-6 6H526.67a6 6 0 0 1-6-6z" stroke="#3a414a" stroke-width="3" fill="#fff"/><use xlink:href="#a" transform="matrix(1,0,0,1,536.8000000000001,415.2666666666665) translate(25.033333333333303 67.675)"/><path d="M-305.9 702.57a6 6 0 0 1 6-6H10.75a6 6 0 0 1 6 6v126.67a6 6 0 0 1-6 6H-299.9a6 6 0 0 1-6-6z" stroke="#3a414a" stroke-width="3" fill="#fff"/><use xlink:href="#b" transform="matrix(1,0,0,1,-289.7741117175985,703.5045723987214) translate(1.2361111111110858 67.675)"/><path d="M681.97 550l-.08 3.62-.3 4.63-.44 4.24-.57 3.9-.7 3.6-.8 3.35-.86 3.13-.96 2.94-1.03 2.78-1.1 2.62-1.18 2.5-1.25 2.4-1.3 2.27-1.4 2.2-1.48 2.1-1.55 2.05-1.66 2-1.74 1.92-1.85 1.9-1.96 1.83-2.1 1.8-2.24 1.78-2.4 1.75-2.6 1.72-2.8 1.7-3.03 1.66-3.33 1.66-3.66 1.63-4.05 1.6-4.53 1.57-5.1 1.53-5.78 1.48-6.68 1.42-7.8 1.3-9.3 1.18-11.4.95-14.53.6-19.96-.03-33.2-1.48-118.5-7.9" stroke="#3a414a" stroke-width="3" stroke-linejoin="round" fill="none"/><path d="M683.47 550.07l-3-.06.03-1.5h3z" stroke="#3a414a" stroke-width=".05" fill="#3a414a"/><path d="M388.68 621.87l13.12-7.3-.42 15.28z" stroke="#3a414a" stroke-width="3" fill="#3a414a"/><path d="M315.45 847.45c41.3 0 74.8 33.48 74.8 74.8 0 41.3-33.5 74.77-74.8 74.77H165.88c-41.3 0-74.78-33.48-74.78-74.78 0-41.3 33.48-74.8 74.78-74.8z" stroke="#3a414a" stroke-width="3" fill="#fff"/><use xlink:href="#c" transform="matrix(1,0,0,1,106.05255150781713,854.9308481526298) translate(29.77222222222221 71.425)"/><path d="M321.45 246.55c41.3 0 74.8 33.48 74.8 74.78 0 41.3-33.5 74.8-74.8 74.8H171.88c-41.3 0-74.78-33.5-74.78-74.8s33.48-74.78 74.78-74.78z" stroke="#3a414a" stroke-width="3" fill="#fff"/><use xlink:href="#d" transform="matrix(1,0,0,1,112.05255150781724,254.02627575390858) translate(35.47777777777776 71.425)"/><path d="M399.24 321.3l43.1-1.1 91.5-3.15 23.7.46 16.74 1.05 12.94 1.35 10.46 1.54 8.73 1.66 7.43 1.73 6.42 1.8 5.62 1.82 4.98 1.85 4.45 1.87 4 1.88 3.64 1.9 3.3 1.9 3.05 1.94 2.8 1.93 2.58 1.97 2.4 2 2.25 2 2.1 2.06 1.97 2.1 1.85 2.14 1.74 2.2 1.63 2.25 1.54 2.32 1.45 2.4 1.37 2.5 1.28 2.6 1.2 2.7 1.13 2.84 1.05 3 .96 3.16.87 3.35.76 3.6.64 3.83.52 4.13.07.88" stroke="#3a414a" stroke-width="3" stroke-linejoin="round" fill="none"/><path d="M399.32 322.8l-1.63.03.04-1.48-.03-1.52 1.54-.03z" stroke="#3a414a" stroke-width=".05" fill="#3a414a"/><path d="M681.8 403.9l-8.46-12.4 15.24-1z" stroke="#3a414a" stroke-width="3" fill="#3a414a"/><path d="M309.45 547c41.3 0 74.8 33.48 74.8 74.8 0 41.3-33.5 74.77-74.8 74.77H171.88c-41.3 0-74.78-33.48-74.78-74.78 0-41.32 33.48-74.8 74.78-74.8z" stroke="#3a414a" stroke-width="3" fill="#fff"/><use xlink:href="#c" transform="matrix(1,0,0,1,111.45255150781712,554.4785619532691) translate(24.27222222222221 71.425)"/><path d="M94.1 621.75L53 620.67l-69.95-2.23-20.7.4-14.5.9-11.2 1.17-9 1.33-7.52 1.43-6.4 1.5-5.5 1.53-4.83 1.56-4.28 1.6-3.8 1.6-3.45 1.6-3.12 1.63-2.84 1.63-2.6 1.65-2.4 1.66-2.2 1.7-2.07 1.7-1.92 1.72-1.8 1.75-1.68 1.8-1.57 1.83-1.5 1.87-1.4 1.93-1.3 1.98-1.24 2.06-1.17 2.12-1.1 2.2-1.03 2.32-.96 2.42-.88 2.54-.8 2.7-.74 2.85-.65 3.05-.55 3.26-.32 2.6" stroke="#3a414a" stroke-width="3" stroke-linejoin="round" fill="none"/><path d="M95.64 620.3l-.05 1.47.02 1.52-1.6-.05.07-3z" stroke="#3a414a" stroke-width=".05" fill="#3a414a"/><path d="M-144.34 692.13l-6.6-13.47 15.22 1.2z" stroke="#3a414a" stroke-width="3" fill="#3a414a"/><path d="M520.67 995.43a6 6 0 0 1 6-6h310.66a6 6 0 0 1 6 6v126.67a6 6 0 0 1-6 6H526.67a6 6 0 0 1-6-6z" stroke="#3a414a" stroke-width="3" fill="#fff"/><use xlink:href="#e" transform="matrix(1,0,0,1,536.8000000000001,996.3620942679447) translate(14.922222222222189 67.675)"/><path d="M393.24 922.2l18.66-.4 35.8-2.37 104.23-8.66 20-.45 14.3.28 11.12.7 9.03.94 7.53 1.1 6.44 1.23 5.56 1.3 4.9 1.36 4.32 1.4 3.88 1.45 3.5 1.47 3.2 1.5 2.9 1.52 2.67 1.54 2.48 1.58 2.3 1.6 2.13 1.62 2 1.65 1.88 1.7 1.77 1.73 1.66 1.77 1.57 1.83 1.5 1.88 1.4 1.94 1.35 2.02 1.27 2.1 1.2 2.2 1.13 2.3 1.08 2.4 1.02 2.57.94 2.7.87 2.87.8 3.08.7 3.32.6 3.58.5 3.9.03.4" stroke="#3a414a" stroke-width="3" stroke-linejoin="round" fill="none"/><path d="M393.3 923.7l-1.6.04.04-1.5-.03-1.5 1.55-.04z" stroke="#3a414a" stroke-width=".05" fill="#3a414a"/><path d="M681.8 985l-8.5-12.38 15.24-1.03z" stroke="#3a414a" stroke-width="3" fill="#3a414a"/><path d="M394.85 1128.1c39.8 0 72.05 32.26 72.05 72.06 0 39.8-32.26 72.05-72.05 72.05H118.5c-39.8 0-72.07-32.25-72.07-72.05s32.26-72.06 72.06-72.06z" stroke="#3a414a" stroke-width="3" fill="#fff"/><use xlink:href="#f" transform="matrix(1,0,0,1,67.45255150781716,1135.3013752445795) translate(5.586111111111023 69.55)"/><path d="M681.97 1131.1l-.05 2.43-.23 3.62-.36 3.33-.46 3.1-.55 2.9-.63 2.72-.72 2.56-.78 2.42-.86 2.3-.93 2.2-.98 2.1-1.06 2.04-1.13 1.95-1.2 1.9-1.27 1.83-1.36 1.8-1.45 1.74-1.54 1.7-1.64 1.7-1.76 1.65-1.9 1.63-2.04 1.6-2.2 1.62-2.4 1.6-2.6 1.57-2.87 1.57-3.17 1.56-3.5 1.56-3.93 1.55-4.43 1.54-5.04 1.53-5.83 1.5-6.83 1.44-8.16 1.37-10.02 1.26-12.87 1.07-17.87.72-32.28-.1-55.54-1.3" stroke="#3a414a" stroke-width="3" stroke-linejoin="round" fill="none"/><path d="M683.47 1131.17l-3-.07.03-1.5h3z" stroke="#3a414a" stroke-width=".05" fill="#3a414a"/><path d="M471.35 1200.22l13.08-7.33-.35 15.25z" stroke="#3a414a" stroke-width="3" fill="#3a414a"/><path d="M97.1 1427.02a6 6 0 0 1 6-6h310.66a6 6 0 0 1 6 6v126.66a6 6 0 0 1-6 6H103.1a6 6 0 0 1-6-6z" stroke="#3a414a" stroke-width="3" fill="#fff"/><use xlink:href="#g" transform="matrix(1,0,0,1,113.22876093461161,1427.9520022335423) translate(36.624999999999986 67.675)"/><path d="M256.7 1275.22l1.6 133.2" stroke="#3a414a" stroke-width="3" stroke-linejoin="round" fill="none"/><path d="M258.2 1275.24l-3 .03-.03-1.56h3z" stroke="#3a414a" stroke-width=".05" fill="#3a414a"/><path d="M258.4 1416.57l-7.8-12.82 15.27-.18z" stroke="#3a414a" stroke-width="3" fill="#3a414a"/><path d="M-144.54 838.24l.06 2.96.26 4.1.4 3.82.52 3.55.63 3.33.74 3.14.83 2.97.9 2.82 1 2.7 1.1 2.56 1.16 2.48 1.25 2.38 1.34 2.3 1.42 2.25 1.5 2.17 1.63 2.13 1.72 2.1 1.85 2.04 1.97 2.02 2.13 2 2.28 1.96 2.47 1.96 2.68 1.94 2.9 1.94 3.2 1.93 3.5 1.9 3.9 1.94 4.3 1.92 4.86 1.92 5.5 1.9 6.3 1.9 7.3 1.88 8.63 1.83 10.38 1.74 12.9 1.62 16.9 1.4 24.57 1 78.04-.46" stroke="#3a414a" stroke-width="3" stroke-linejoin="round" fill="none"/><path d="M-143.04 838.25l-3 .06-.03-1.56h3z" stroke="#3a414a" stroke-width=".05" fill="#3a414a"/><path d="M86.65 922.25l-12.87 7.7-.1-15.26z" stroke="#3a414a" stroke-width="3" fill="#3a414a"/><defs><path d="M205 0l-28-72H64L36 0H1l101-248h38L239 0h-34zm-38-99l-47-123c-12 45-31 82-46 123h93" id="h"/><path d="M24 0v-261h32V0H24" id="i"/><path d="M96-169c-40 0-48 33-48 73s9 75 48 75c24 0 41-14 43-38l32 2c-6 37-31 61-74 61-59 0-76-41-82-99-10-93 101-131 147-64 4 7 5 14 7 22l-32 3c-4-21-16-35-41-35" id="j"/><path d="M106-169C34-169 62-67 57 0H25v-261h32l-1 103c12-21 28-36 61-36 89 0 53 116 60 194h-32v-121c2-32-8-49-39-48" id="k"/><path d="M100-194c63 0 86 42 84 106H49c0 40 14 67 53 68 26 1 43-12 49-29l28 8c-11 28-37 45-77 45C44 4 14-33 15-96c1-61 26-98 85-98zm52 81c6-60-76-77-97-28-3 7-6 17-6 28h103" id="l"/><path d="M210-169c-67 3-38 105-44 169h-31v-121c0-29-5-50-35-48C34-165 62-65 56 0H25l-1-190h30c1 10-1 24 2 32 10-44 99-50 107 0 11-21 27-35 58-36 85-2 47 119 55 194h-31v-121c0-29-5-49-35-48" id="m"/><path d="M114-163C36-179 61-72 57 0H25l-1-190h30c1 12-1 29 2 39 6-27 23-49 58-41v29" id="n"/><path d="M135-143c-3-34-86-38-87 0 15 53 115 12 119 90S17 21 10-45l28-5c4 36 97 45 98 0-10-56-113-15-118-90-4-57 82-63 122-42 12 7 21 19 24 35" id="o"/><path d="M59-47c-2 24 18 29 38 22v24C64 9 27 4 27-40v-127H5v-23h24l9-43h21v43h35v23H59v120" id="p"/><path d="M33-154v-36h34v36H33zM33 0v-36h34V0H33" id="q"/><path d="M233-177c-1 41-23 64-60 70L243 0h-38l-65-103H63V0H30v-248c88 3 205-21 203 71zM63-129c60-2 137 13 137-47 0-61-80-42-137-45v92" id="r"/><path d="M145-31C134-9 116 4 85 4 32 4 16-35 15-94c0-59 17-99 70-100 32-1 48 14 60 33 0-11-1-24 2-32h30l-1 268h-32zM93-21c41 0 51-33 51-76s-8-73-50-73c-40 0-46 35-46 75s5 74 45 74" id="s"/><path d="M84 4C-5 8 30-112 23-190h32v120c0 31 7 50 39 49 72-2 45-101 50-169h31l1 190h-30c-1-10 1-25-2-33-11 22-28 36-60 37" id="t"/><g id="a"><use transform="matrix(0.07222222222222222,0,0,0.07222222222222222,0,0)" xlink:href="#h"/><use transform="matrix(0.07222222222222222,0,0,0.07222222222222222,17.333333333333332,0)" xlink:href="#i"/><use transform="matrix(0.07222222222222222,0,0,0.07222222222222222,23.038888888888888,0)" xlink:href="#j"/><use transform="matrix(0.07222222222222222,0,0,0.07222222222222222,36.038888888888884,0)" xlink:href="#k"/><use transform="matrix(0.07222222222222222,0,0,0.07222222222222222,50.48333333333333,0)" xlink:href="#l"/><use transform="matrix(0.07222222222222222,0,0,0.07222222222222222,64.92777777777778,0)" xlink:href="#m"/><use transform="matrix(0.07222222222222222,0,0,0.07222222222222222,86.52222222222221,0)" xlink:href="#n"/><use transform="matrix(0.07222222222222222,0,0,0.07222222222222222,95.11666666666666,0)" xlink:href="#l"/><use transform="matrix(0.07222222222222222,0,0,0.07222222222222222,109.5611111111111,0)" xlink:href="#o"/><use transform="matrix(0.07222222222222222,0,0,0.07222222222222222,122.5611111111111,0)" xlink:href="#p"/><use transform="matrix(0.07222222222222222,0,0,0.07222222222222222,129.78333333333333,0)" xlink:href="#q"/><use transform="matrix(0.07222222222222222,0,0,0.07222222222222222,137.00555555555556,0)" xlink:href="#q"/><use transform="matrix(0.07222222222222222,0,0,0.07222222222222222,144.2277777777778,0)" xlink:href="#r"/><use transform="matrix(0.07222222222222222,0,0,0.07222222222222222,162.93333333333334,0)" xlink:href="#l"/><use transform="matrix(0.07222222222222222,0,0,0.07222222222222222,177.3777777777778,0)" xlink:href="#s"/><use transform="matrix(0.07222222222222222,0,0,0.07222222222222222,191.82222222222222,0)" xlink:href="#t"/><use transform="matrix(0.07222222222222222,0,0,0.07222222222222222,206.2666666666667,0)" xlink:href="#l"/><use transform="matrix(0.07222222222222222,0,0,0.07222222222222222,220.71111111111117,0)" xlink:href="#o"/><use transform="matrix(0.07222222222222222,0,0,0.07222222222222222,233.71111111111117,0)" xlink:href="#p"/></g><path d="M197 0v-115H63V0H30v-248h33v105h134v-105h34V0h-34" id="u"/><path d="M115-194c55 1 70 41 70 98S169 2 115 4C84 4 66-9 55-30l1 105H24l-1-265h31l2 30c10-21 28-34 59-34zm-8 174c40 0 45-34 45-75s-6-73-45-74c-42 0-51 32-51 76 0 43 10 73 51 73" id="v"/><g id="b"><use transform="matrix(0.07222222222222222,0,0,0.07222222222222222,0,0)" xlink:href="#h"/><use transform="matrix(0.07222222222222222,0,0,0.07222222222222222,17.333333333333332,0)" xlink:href="#i"/><use transform="matrix(0.07222222222222222,0,0,0.07222222222222222,23.038888888888888,0)" xlink:href="#j"/><use transform="matrix(0.07222222222222222,0,0,0.07222222222222222,36.038888888888884,0)" xlink:href="#k"/><use transform="matrix(0.07222222222222222,0,0,0.07222222222222222,50.48333333333333,0)" xlink:href="#l"/><use transform="matrix(0.07222222222222222,0,0,0.07222222222222222,64.92777777777778,0)" xlink:href="#m"/><use transform="matrix(0.07222222222222222,0,0,0.07222222222222222,86.52222222222221,0)" xlink:href="#n"/><use transform="matrix(0.07222222222222222,0,0,0.07222222222222222,95.11666666666666,0)" xlink:href="#l"/><use transform="matrix(0.07222222222222222,0,0,0.07222222222222222,109.5611111111111,0)" xlink:href="#o"/><use transform="matrix(0.07222222222222222,0,0,0.07222222222222222,122.5611111111111,0)" xlink:href="#p"/><use transform="matrix(0.07222222222222222,0,0,0.07222222222222222,129.78333333333333,0)" xlink:href="#q"/><use transform="matrix(0.07222222222222222,0,0,0.07222222222222222,137.00555555555556,0)" xlink:href="#q"/><use transform="matrix(0.07222222222222222,0,0,0.07222222222222222,144.2277777777778,0)" xlink:href="#u"/><use transform="matrix(0.07222222222222222,0,0,0.07222222222222222,162.93333333333334,0)" xlink:href="#p"/><use transform="matrix(0.07222222222222222,0,0,0.07222222222222222,170.15555555555557,0)" xlink:href="#p"/><use transform="matrix(0.07222222222222222,0,0,0.07222222222222222,177.3777777777778,0)" xlink:href="#v"/><use transform="matrix(0.07222222222222222,0,0,0.07222222222222222,191.82222222222222,0)" xlink:href="#r"/><use transform="matrix(0.07222222222222222,0,0,0.07222222222222222,210.5277777777778,0)" xlink:href="#l"/><use transform="matrix(0.07222222222222222,0,0,0.07222222222222222,224.97222222222223,0)" xlink:href="#s"/><use transform="matrix(0.07222222222222222,0,0,0.07222222222222222,239.41666666666669,0)" xlink:href="#t"/><use transform="matrix(0.07222222222222222,0,0,0.07222222222222222,253.86111111111114,0)" xlink:href="#l"/><use transform="matrix(0.07222222222222222,0,0,0.07222222222222222,268.3055555555556,0)" xlink:href="#o"/><use transform="matrix(0.07222222222222222,0,0,0.07222222222222222,281.3055555555556,0)" xlink:href="#p"/></g><path d="M212-179c-10-28-35-45-73-45-59 0-87 40-87 99 0 60 29 101 89 101 43 0 62-24 78-52l27 14C228-24 195 4 139 4 59 4 22-46 18-125c-6-104 99-153 187-111 19 9 31 26 39 46" id="w"/><path d="M24-231v-30h32v30H24zM24 0v-190h32V0H24" id="x"/><path d="M117-194c89-4 53 116 60 194h-32v-121c0-31-8-49-39-48C34-167 62-67 57 0H25l-1-190h30c1 10-1 24 2 32 11-22 29-35 61-36" id="y"/><g id="c"><use transform="matrix(0.07222222222222222,0,0,0.07222222222222222,0,0)" xlink:href="#h"/><use transform="matrix(0.07222222222222222,0,0,0.07222222222222222,17.333333333333332,0)" xlink:href="#i"/><use transform="matrix(0.07222222222222222,0,0,0.07222222222222222,23.038888888888888,0)" xlink:href="#j"/><use transform="matrix(0.07222222222222222,0,0,0.07222222222222222,36.038888888888884,0)" xlink:href="#k"/><use transform="matrix(0.07222222222222222,0,0,0.07222222222222222,50.48333333333333,0)" xlink:href="#l"/><use transform="matrix(0.07222222222222222,0,0,0.07222222222222222,64.92777777777778,0)" xlink:href="#m"/><use transform="matrix(0.07222222222222222,0,0,0.07222222222222222,86.52222222222221,0)" xlink:href="#n"/><use transform="matrix(0.07222222222222222,0,0,0.07222222222222222,95.11666666666666,0)" xlink:href="#l"/><use transform="matrix(0.07222222222222222,0,0,0.07222222222222222,109.5611111111111,0)" xlink:href="#o"/><use transform="matrix(0.07222222222222222,0,0,0.07222222222222222,122.5611111111111,0)" xlink:href="#p"/><use transform="matrix(0.07222222222222222,0,0,0.07222222222222222,129.78333333333333,0)" xlink:href="#q"/><use transform="matrix(0.07222222222222222,0,0,0.07222222222222222,137.00555555555556,0)" xlink:href="#q"/><use transform="matrix(0.07222222222222222,0,0,0.07222222222222222,144.2277777777778,0)" xlink:href="#w"/><use transform="matrix(0.07222222222222222,0,0,0.07222222222222222,162.93333333333334,0)" xlink:href="#i"/><use transform="matrix(0.07222222222222222,0,0,0.07222222222222222,168.63888888888889,0)" xlink:href="#x"/><use transform="matrix(0.07222222222222222,0,0,0.07222222222222222,174.34444444444443,0)" xlink:href="#l"/><use transform="matrix(0.07222222222222222,0,0,0.07222222222222222,188.7888888888889,0)" xlink:href="#y"/><use transform="matrix(0.07222222222222222,0,0,0.07222222222222222,203.23333333333335,0)" xlink:href="#p"/></g><path d="M100-194c62-1 85 37 85 99 1 63-27 99-86 99S16-35 15-95c0-66 28-99 85-99zM99-20c44 1 53-31 53-75 0-43-8-75-51-75s-53 32-53 75 10 74 51 75" id="z"/><g id="d"><use transform="matrix(0.07222222222222222,0,0,0.07222222222222222,0,0)" xlink:href="#h"/><use transform="matrix(0.07222222222222222,0,0,0.07222222222222222,17.333333333333332,0)" xlink:href="#i"/><use transform="matrix(0.07222222222222222,0,0,0.07222222222222222,23.038888888888888,0)" xlink:href="#j"/><use transform="matrix(0.07222222222222222,0,0,0.07222222222222222,36.038888888888884,0)" xlink:href="#k"/><use transform="matrix(0.07222222222222222,0,0,0.07222222222222222,50.48333333333333,0)" xlink:href="#l"/><use transform="matrix(0.07222222222222222,0,0,0.07222222222222222,64.92777777777778,0)" xlink:href="#m"/><use transform="matrix(0.07222222222222222,0,0,0.07222222222222222,86.52222222222221,0)" xlink:href="#n"/><use transform="matrix(0.07222222222222222,0,0,0.07222222222222222,95.11666666666666,0)" xlink:href="#l"/><use transform="matrix(0.07222222222222222,0,0,0.07222222222222222,109.5611111111111,0)" xlink:href="#o"/><use transform="matrix(0.07222222222222222,0,0,0.07222222222222222,122.5611111111111,0)" xlink:href="#p"/><use transform="matrix(0.07222222222222222,0,0,0.07222222222222222,129.78333333333333,0)" xlink:href="#q"/><use transform="matrix(0.07222222222222222,0,0,0.07222222222222222,137.00555555555556,0)" xlink:href="#q"/><use transform="matrix(0.07222222222222222,0,0,0.07222222222222222,144.2277777777778,0)" xlink:href="#r"/><use transform="matrix(0.07222222222222222,0,0,0.07222222222222222,162.93333333333334,0)" xlink:href="#z"/><use transform="matrix(0.07222222222222222,0,0,0.07222222222222222,177.3777777777778,0)" xlink:href="#z"/><use transform="matrix(0.07222222222222222,0,0,0.07222222222222222,191.82222222222222,0)" xlink:href="#p"/></g><g id="e"><use transform="matrix(0.07222222222222222,0,0,0.07222222222222222,0,0)" xlink:href="#h"/><use transform="matrix(0.07222222222222222,0,0,0.07222222222222222,17.333333333333332,0)" xlink:href="#i"/><use transform="matrix(0.07222222222222222,0,0,0.07222222222222222,23.038888888888888,0)" xlink:href="#j"/><use transform="matrix(0.07222222222222222,0,0,0.07222222222222222,36.038888888888884,0)" xlink:href="#k"/><use transform="matrix(0.07222222222222222,0,0,0.07222222222222222,50.48333333333333,0)" xlink:href="#l"/><use transform="matrix(0.07222222222222222,0,0,0.07222222222222222,64.92777777777778,0)" xlink:href="#m"/><use transform="matrix(0.07222222222222222,0,0,0.07222222222222222,86.52222222222221,0)" xlink:href="#n"/><use transform="matrix(0.07222222222222222,0,0,0.07222222222222222,95.11666666666666,0)" xlink:href="#l"/><use transform="matrix(0.07222222222222222,0,0,0.07222222222222222,109.5611111111111,0)" xlink:href="#o"/><use transform="matrix(0.07222222222222222,0,0,0.07222222222222222,122.5611111111111,0)" xlink:href="#p"/><use transform="matrix(0.07222222222222222,0,0,0.07222222222222222,129.78333333333333,0)" xlink:href="#q"/><use transform="matrix(0.07222222222222222,0,0,0.07222222222222222,137.00555555555556,0)" xlink:href="#q"/><use transform="matrix(0.07222222222222222,0,0,0.07222222222222222,144.2277777777778,0)" xlink:href="#r"/><use transform="matrix(0.07222222222222222,0,0,0.07222222222222222,162.93333333333334,0)" xlink:href="#l"/><use transform="matrix(0.07222222222222222,0,0,0.07222222222222222,177.3777777777778,0)" xlink:href="#o"/><use transform="matrix(0.07222222222222222,0,0,0.07222222222222222,190.3777777777778,0)" xlink:href="#v"/><use transform="matrix(0.07222222222222222,0,0,0.07222222222222222,204.82222222222222,0)" xlink:href="#z"/><use transform="matrix(0.07222222222222222,0,0,0.07222222222222222,219.2666666666667,0)" xlink:href="#y"/><use transform="matrix(0.07222222222222222,0,0,0.07222222222222222,233.71111111111117,0)" xlink:href="#o"/><use transform="matrix(0.07222222222222222,0,0,0.07222222222222222,246.71111111111117,0)" xlink:href="#l"/></g><path d="M30-248c87 1 191-15 191 75 0 78-77 80-158 76V0H30v-248zm33 125c57 0 124 11 124-50 0-59-68-47-124-48v98" id="A"/><g id="f"><use transform="matrix(0.07222222222222222,0,0,0.07222222222222222,0,0)" xlink:href="#h"/><use transform="matrix(0.07222222222222222,0,0,0.07222222222222222,17.333333333333332,0)" xlink:href="#i"/><use transform="matrix(0.07222222222222222,0,0,0.07222222222222222,23.038888888888888,0)" xlink:href="#j"/><use transform="matrix(0.07222222222222222,0,0,0.07222222222222222,36.038888888888884,0)" xlink:href="#k"/><use transform="matrix(0.07222222222222222,0,0,0.07222222222222222,50.48333333333333,0)" xlink:href="#l"/><use transform="matrix(0.07222222222222222,0,0,0.07222222222222222,64.92777777777778,0)" xlink:href="#m"/><use transform="matrix(0.07222222222222222,0,0,0.07222222222222222,86.52222222222221,0)" xlink:href="#n"/><use transform="matrix(0.07222222222222222,0,0,0.07222222222222222,95.11666666666666,0)" xlink:href="#l"/><use transform="matrix(0.07222222222222222,0,0,0.07222222222222222,109.5611111111111,0)" xlink:href="#o"/><use transform="matrix(0.07222222222222222,0,0,0.07222222222222222,122.5611111111111,0)" xlink:href="#p"/><use transform="matrix(0.07222222222222222,0,0,0.07222222222222222,129.78333333333333,0)" xlink:href="#q"/><use transform="matrix(0.07222222222222222,0,0,0.07222222222222222,137.00555555555556,0)" xlink:href="#q"/><use transform="matrix(0.07222222222222222,0,0,0.07222222222222222,144.2277777777778,0)" xlink:href="#r"/><use transform="matrix(0.07222222222222222,0,0,0.07222222222222222,162.93333333333334,0)" xlink:href="#l"/><use transform="matrix(0.07222222222222222,0,0,0.07222222222222222,177.3777777777778,0)" xlink:href="#o"/><use transform="matrix(0.07222222222222222,0,0,0.07222222222222222,190.3777777777778,0)" xlink:href="#v"/><use transform="matrix(0.07222222222222222,0,0,0.07222222222222222,204.82222222222222,0)" xlink:href="#z"/><use transform="matrix(0.07222222222222222,0,0,0.07222222222222222,219.2666666666667,0)" xlink:href="#y"/><use transform="matrix(0.07222222222222222,0,0,0.07222222222222222,233.71111111111117,0)" xlink:href="#o"/><use transform="matrix(0.07222222222222222,0,0,0.07222222222222222,246.71111111111117,0)" xlink:href="#l"/><use transform="matrix(0.07222222222222222,0,0,0.07222222222222222,261.1555555555556,0)" xlink:href="#q"/><use transform="matrix(0.07222222222222222,0,0,0.07222222222222222,268.37777777777785,0)" xlink:href="#q"/><use transform="matrix(0.07222222222222222,0,0,0.07222222222222222,275.6000000000001,0)" xlink:href="#A"/><use transform="matrix(0.07222222222222222,0,0,0.07222222222222222,292.9333333333334,0)" xlink:href="#x"/><use transform="matrix(0.07222222222222222,0,0,0.07222222222222222,298.63888888888897,0)" xlink:href="#v"/><use transform="matrix(0.07222222222222222,0,0,0.07222222222222222,313.0833333333334,0)" xlink:href="#l"/><use transform="matrix(0.07222222222222222,0,0,0.07222222222222222,327.5277777777779,0)" xlink:href="#i"/><use transform="matrix(0.07222222222222222,0,0,0.07222222222222222,333.2333333333334,0)" xlink:href="#x"/><use transform="matrix(0.07222222222222222,0,0,0.07222222222222222,338.93888888888904,0)" xlink:href="#y"/><use transform="matrix(0.07222222222222222,0,0,0.07222222222222222,353.3833333333335,0)" xlink:href="#l"/></g><g id="g"><use transform="matrix(0.07222222222222222,0,0,0.07222222222222222,0,0)" xlink:href="#h"/><use transform="matrix(0.07222222222222222,0,0,0.07222222222222222,17.333333333333332,0)" xlink:href="#i"/><use transform="matrix(0.07222222222222222,0,0,0.07222222222222222,23.038888888888888,0)" xlink:href="#j"/><use transform="matrix(0.07222222222222222,0,0,0.07222222222222222,36.038888888888884,0)" xlink:href="#k"/><use transform="matrix(0.07222222222222222,0,0,0.07222222222222222,50.48333333333333,0)" xlink:href="#l"/><use transform="matrix(0.07222222222222222,0,0,0.07222222222222222,64.92777777777778,0)" xlink:href="#m"/><use transform="matrix(0.07222222222222222,0,0,0.07222222222222222,86.52222222222221,0)" xlink:href="#n"/><use transform="matrix(0.07222222222222222,0,0,0.07222222222222222,95.11666666666666,0)" xlink:href="#l"/><use transform="matrix(0.07222222222222222,0,0,0.07222222222222222,109.5611111111111,0)" xlink:href="#o"/><use transform="matrix(0.07222222222222222,0,0,0.07222222222222222,122.5611111111111,0)" xlink:href="#p"/><use transform="matrix(0.07222222222222222,0,0,0.07222222222222222,129.78333333333333,0)" xlink:href="#q"/><use transform="matrix(0.07222222222222222,0,0,0.07222222222222222,137.00555555555556,0)" xlink:href="#q"/><use transform="matrix(0.07222222222222222,0,0,0.07222222222222222,144.2277777777778,0)" xlink:href="#r"/><use transform="matrix(0.07222222222222222,0,0,0.07222222222222222,162.93333333333334,0)" xlink:href="#l"/><use transform="matrix(0.07222222222222222,0,0,0.07222222222222222,177.3777777777778,0)" xlink:href="#o"/><use transform="matrix(0.07222222222222222,0,0,0.07222222222222222,190.3777777777778,0)" xlink:href="#t"/><use transform="matrix(0.07222222222222222,0,0,0.07222222222222222,204.82222222222222,0)" xlink:href="#i"/><use transform="matrix(0.07222222222222222,0,0,0.07222222222222222,210.5277777777778,0)" xlink:href="#p"/></g></defs></g></svg>